<?xml version="1.0" encoding="utf-8"?>
<!-- Generator: Adobe Illustrator 25.2.0, SVG Export Plug-In . SVG Version: 6.00 Build 0)  -->
<svg version="1.1" id="Calque_1" xmlns="http://www.w3.org/2000/svg" xmlns:xlink="http://www.w3.org/1999/xlink" x="0px" y="0px"
	 viewBox="0 0 408.2 222.2" style="enable-background:new 0 0 408.2 222.2;" xml:space="preserve">
<style type="text/css">
	.st0{fill:#EDE7DA;}
	.st1{fill:#F2AA4C;}
	.st2{enable-background:new    ;}
	.st3{fill:#1A1422;}
</style>
<g id="Calque_2_1_">
	<path class="st0" d="M174,31.6l-0.1-0.2c0,0,0,0,0,0l-15.1-17.8c-0.4-0.6-0.9-1.1-1.5-1.5c-2.3-1.8-5.3-2.9-8.4-2.9H18.9
		c-7.5,0-13.7,6.2-13.7,13.7v161.6c0,3.2,1.1,6.2,3,8.5h0l0.1,0.2c0,0,0,0,0,0l15.1,17.8c0.4,0.6,0.9,1.1,1.5,1.5
		c2.3,1.8,5.3,2.9,8.4,2.9h129.9c7.5,0,13.7-6.1,13.7-13.7V40.1C177,36.9,175.9,33.9,174,31.6L174,31.6z"/>
	<path class="st1" d="M149.7,197.3H16.5c-6.6,0-12-5.4-12-12V20.4c0-6.6,5.4-12,12-12h133.2c6.6,0,12,5.4,12,12v164.9
		C161.7,191.9,156.3,197.3,149.7,197.3z"/>
</g>
<g id="Calque_1_1_">
	<g class="st2">
		<path class="st0" d="M204.7,78.3v-70h53.1v70h-17.7V25.8h-17.7v52.5H204.7z"/>
		<path class="st0" d="M266.7,78.3v-70h53.1v17.5h-35.4v8.8h26.5v17.5h-26.5v8.8h35.4v17.5H266.7z"/>
		<path class="st0" d="M328.6,78.3v-70h17.7v52.5h8.8v-35h17.7v35h8.8V8.3h17.7v70H328.6z"/>
	</g>
	<g class="st2">
		<path class="st0" d="M204.7,142.5V89h40.6v13.4h-27v26.7h13.5v-6.7H225v-13.4h20.3v33.4H204.7z"/>
		<path class="st0" d="M252,142.5V89h40.6v53.5h-13.5v-20.1h-13.5v20.1H252z M279.1,109.1v-6.7h-13.5v6.7H279.1z"/>
		<path class="st0" d="M299.4,142.5V89h54.1v53.5h-13.5v-40.1h-6.8v26.7h-13.5v-26.7h-6.8v40.1H299.4z"/>
		<path class="st0" d="M360.2,142.5V89h40.6v13.4h-27v6.7H394v13.4h-20.3v6.7h27v13.4H360.2z"/>
	</g>
	<g class="st2">
		<path class="st0" d="M204.7,210.9v-57H248v35.6h-28.8v21.4H204.7z M233.5,175.3v-7.1h-14.4v7.1H233.5z"/>
		<path class="st0" d="M255.2,210.9v-57h14.4v42.8h28.8v14.2H255.2z"/>
		<path class="st0" d="M305.6,210.9v-57H320v42.8h14.4v-42.8h14.4v57H305.6z"/>
		<path class="st0" d="M356,210.9v-14.2h28.8v-7.1H356v-35.6h43.2v14.2h-28.8v7.1h28.8v35.6H356z"/>
	</g>
	<g>
		<path class="st3" d="M69.9,138.8V116H47.1c-1.9,0-3.5-1.6-3.5-3.5V93.2c0-1.9,1.6-3.5,3.5-3.5h22.8V66.9c0-1.9,1.6-3.5,3.5-3.5
			h19.3c1.9,0,3.5,1.6,3.5,3.5v22.8h22.8c1.9,0,3.5,1.6,3.5,3.5v19.3c0,1.9-1.6,3.5-3.5,3.5H96.3v22.8c0,1.9-1.6,3.5-3.5,3.5H73.4
			C71.5,142.4,69.9,140.8,69.9,138.8z"/>
	</g>
</g>
</svg>
